<svg id="Capa_1" enable-background="new 0 0 512 512" height="512" viewBox="0 0 512 512" width="512" xmlns="http://www.w3.org/2000/svg"><g><path d="m411.664 264.809c0 9.216-7.471 16.687-16.687 16.687h-378.29c-9.216 0-16.687-7.471-16.687-16.687v-196.779c0-9.216 7.471-16.687 16.687-16.687h378.291c9.216 0 16.687 7.471 16.687 16.687v196.779z" fill="#95d6a4"/><path d="m411.664 68.03c0-9.216-7.471-16.687-16.687-16.687h-28.46c9.216 0 16.687 7.471 16.687 16.687v196.779c0 9.216-7.471 16.687-16.687 16.687h28.46c9.216 0 16.687-7.471 16.687-16.687z" fill="#78c2a4"/><path d="m373.081 202.677v-70.47c0-1.124-.895-2.041-2.019-2.069-42.598-1.071-76.801-35.938-76.801-78.794h-176.859c0 42.856-34.203 77.723-76.801 78.794-1.123.028-2.019.946-2.019 2.069v68.426c0 1.124.895 2.041 2.019 2.069 42.598 1.071 76.801 35.938 76.801 78.794h176.859c.001-43.531 35.289-78.819 78.82-78.819z" fill="#b3e59f"/><g><g><path d="m203.827 223.675c-11.161 0-18.005-1.03-29.208-8.359-3.57-2.335-4.571-7.122-2.235-10.691 2.335-3.569 7.123-4.571 10.691-2.235 8.162 5.339 11.701 5.907 22.074 5.834 11.602-.077 18.335-8.729 19.681-16.734.535-3.185 1.306-13.922-11.257-18.362-15.332-5.42-24.154-9.646-30.451-14.585-7.176-5.628-10.444-15.435-8.531-25.593 2.095-11.117 9.819-19.957 20.158-23.072 19.863-5.983 35.598.589 36.256.871 3.921 1.679 5.739 6.219 4.06 10.14-1.672 3.905-6.183 5.724-10.094 4.078-.307-.123-11.61-4.565-25.767-.3-5.732 1.727-8.631 6.888-9.434 11.143-.829 4.402.304 8.554 2.885 10.579 6.055 4.75 16.575 8.82 26.066 12.175 15.657 5.535 24.034 19.464 21.34 35.487-2.382 14.17-14.292 29.483-34.81 29.619-.482.003-.957.005-1.424.005z" fill="#95d6a4"/></g><g><path d="m205.2 238.237c-4.266 0-7.723-3.458-7.723-7.723v-128.188c0-4.265 3.457-7.723 7.723-7.723s7.723 3.458 7.723 7.723v128.188c0 4.265-3.457 7.723-7.723 7.723z" fill="#95d6a4"/></g></g><path d="m507.576 456.549-15.114-19.284c-.991-1.264-2.905-1.264-3.897 0l-17.59 22.443c-.991 1.264-2.905 1.264-3.896 0l-17.593-22.443c-.991-1.264-2.905-1.264-3.896 0l-17.593 22.444c-.991 1.264-2.905 1.264-3.896 0l-17.594-22.444c-.991-1.264-2.905-1.264-3.896 0l-17.594 22.444c-.991 1.264-2.905 1.264-3.896 0l-17.596-22.444c-.991-1.264-2.905-1.264-3.896 0l-15.121 19.287c-1.451 1.851-4.423.825-4.423-1.527v-184.702l-27.933-83.653h47.793 124.124c15.427 0 27.933 12.506 27.933 27.933v240.42c-.002 2.351-2.975 3.377-4.426 1.526z" fill="#f9f6f9"/><g><path d="m484.067 186.669h-20.248c15.427 0 27.933 12.506 27.933 27.933v222.062c.262.153.508.344.71.601l15.114 19.284c1.451 1.851 4.424.825 4.424-1.527v-240.42c0-15.427-12.506-27.933-27.933-27.933z" fill="#dddaec"/></g><g><g><g><path d="m391.241 407.701c-6.743 0-10.962-.785-17.316-4.943-3.569-2.336-4.569-7.123-2.234-10.692s7.122-4.569 10.692-2.234c3.479 2.277 4.625 2.454 9.392 2.421 4.453-.029 6.227-3.523 6.573-5.582.442-2.632-.706-4.451-3.414-5.408-.904-.32-1.785-.622-2.64-.917-6.242-2.151-11.633-4.008-15.3-8.267-4.239-4.92-5.71-11.963-3.841-18.378 1.756-6.025 6.196-10.514 12.18-12.317 10.875-3.276 19.462-1.035 20.406-.768 4.105 1.158 6.493 5.426 5.334 9.531-1.151 4.079-5.373 6.463-9.455 5.355-.244-.058-5.385-1.269-11.829.672-.687.206-1.439.588-1.806 1.849-.39 1.339-.083 3.049.715 3.975.943 1.095 5.205 2.563 8.629 3.744.892.307 1.812.624 2.755.957 9.759 3.45 15.185 12.505 13.499 22.532-1.787 10.629-10.914 18.396-21.702 18.468-.215.001-.427.002-.638.002z" fill="#95d6a4"/></g><g><path d="m391.828 415.257c-4.266 0-7.723-3.457-7.723-7.723v-5.819c0-4.266 3.457-7.723 7.723-7.723s7.723 3.457 7.723 7.723v5.819c0 4.266-3.457 7.723-7.723 7.723z" fill="#95d6a4"/></g><g><path d="m391.828 354.112c-4.266 0-7.723-3.457-7.723-7.723v-5.366c0-4.266 3.457-7.723 7.723-7.723s7.723 3.457 7.723 7.723v5.366c0 4.266-3.457 7.723-7.723 7.723z" fill="#95d6a4"/></g></g><g><path d="m464.03 231.25h-75.976c-4.266 0-7.723-3.458-7.723-7.723s3.457-7.723 7.723-7.723h75.976c4.266 0 7.723 3.458 7.723 7.723s-3.457 7.723-7.723 7.723z" fill="#95d6a4"/></g><g><g><path d="m384.998 275.357h-16.258c-4.266 0-7.723-3.457-7.723-7.723s3.457-7.723 7.723-7.723h16.258c4.266 0 7.723 3.457 7.723 7.723s-3.458 7.723-7.723 7.723z" fill="#95d6a4"/></g><g><path d="m483.344 275.357h-75.854c-4.266 0-7.723-3.457-7.723-7.723s3.457-7.723 7.723-7.723h75.853c4.266 0 7.723 3.457 7.723 7.723s-3.457 7.723-7.722 7.723z" fill="#95d6a4"/></g><g><path d="m384.998 311.006h-16.258c-4.266 0-7.723-3.457-7.723-7.723s3.457-7.723 7.723-7.723h16.258c4.266 0 7.723 3.457 7.723 7.723s-3.458 7.723-7.723 7.723z" fill="#95d6a4"/></g><g><path d="m483.344 311.006h-75.854c-4.266 0-7.723-3.457-7.723-7.723s3.457-7.723 7.723-7.723h75.853c4.266 0 7.723 3.457 7.723 7.723s-3.457 7.723-7.722 7.723z" fill="#95d6a4"/></g><g><path d="m483.344 361.084h-38.442c-4.266 0-7.723-3.457-7.723-7.723s3.457-7.723 7.723-7.723h38.442c4.266 0 7.723 3.457 7.723 7.723s-3.458 7.723-7.723 7.723z" fill="#95d6a4"/></g></g></g><path d="m340.084 298.351h-51.736c-2.281 0-4.131-1.849-4.131-4.131v-79.618c0-15.427 12.506-27.933 27.933-27.933 15.427 0 27.933 12.506 27.933 27.933v83.749z" fill="#d0cee7"/><path d="m312.15 186.669c-3.46 0-6.771.633-9.829 1.784 10.577 3.978 18.104 14.183 18.104 26.15v83.749h19.658v-83.749c.001-15.428-12.506-27.934-27.933-27.934z" fill="#beb9dd"/></g></svg>