<svg id="Capa_1" enable-background="new 0 0 512 512" height="512" viewBox="0 0 512 512" width="512" xmlns="http://www.w3.org/2000/svg"><g><path d="m391.824 512h-271.648c-14.076 0-25.486-11.411-25.486-25.486v-461.028c0-14.075 11.41-25.486 25.486-25.486h271.648c14.076 0 25.486 11.411 25.486 25.486v461.027c0 14.076-11.41 25.487-25.486 25.487z" fill="#407093"/><path d="m391.824 0h-25.126c14.076 0 25.486 11.411 25.486 25.486v461.027c0 14.076-11.411 25.486-25.486 25.486h25.126c14.076 0 25.486-11.411 25.486-25.486v-461.027c0-14.075-11.41-25.486-25.486-25.486z" fill="#365e7d"/><g><path d="m261.424 43.81h-10.848c-4.268 0-7.726-3.459-7.726-7.726s3.459-7.726 7.726-7.726h10.848c4.268 0 7.726 3.459 7.726 7.726s-3.458 7.726-7.726 7.726z" fill="#365e7d"/></g><path d="m376.574 36.056h-49.263c-4.759 0-9.1 2.717-11.179 6.997l-6.637 13.66c-3.495 7.193-10.79 11.759-18.787 11.759h-69.415c-7.997 0-15.292-4.566-18.787-11.759l-6.637-13.66c-2.08-4.28-6.421-6.997-11.179-6.997h-49.263c-2.585 0-4.68 2.095-4.68 4.68v430.527c0 2.585 2.095 4.68 4.68 4.68h241.148c2.585 0 4.68-2.095 4.68-4.68v-430.526c-.001-2.585-2.096-4.681-4.681-4.681z" fill="#d3effb"/><g><path d="m376.574 36.056h-24.056c2.585 0 4.68 2.095 4.68 4.68v430.527c0 2.585-2.095 4.68-4.68 4.68h24.056c2.585 0 4.68-2.095 4.68-4.68v-430.526c0-2.585-2.095-4.681-4.68-4.681z" fill="#b1e4f9"/></g><path d="m313.274 426.627h-114.548c-5.311 0-9.617-4.306-9.617-9.617v-36.193c0-5.311 4.305-9.617 9.617-9.617h114.549c5.311 0 9.617 4.306 9.617 9.617v36.193c-.001 5.311-4.307 9.617-9.618 9.617z" fill="#95d6a4"/><path d="m313.274 371.201h-21.598c5.311 0 9.617 4.305 9.617 9.617v36.193c0 5.311-4.305 9.616-9.617 9.616h21.598c5.311 0 9.617-4.305 9.617-9.616v-36.193c0-5.312-4.306-9.617-9.617-9.617z" fill="#78c2a4"/><g><g><path d="m287.839 105.803h-63.677c-4.268 0-7.726-3.459-7.726-7.726 0-4.268 3.459-7.726 7.726-7.726h63.677c4.268 0 7.726 3.459 7.726 7.726s-3.459 7.726-7.726 7.726z" fill="#365e7d"/></g><g><g><path d="m193.449 148.666h-25.939c-4.268 0-7.726-3.459-7.726-7.726s3.459-7.726 7.726-7.726h25.939c4.268 0 7.726 3.459 7.726 7.726s-3.458 7.726-7.726 7.726z" fill="#365e7d"/></g><g><path d="m344.49 148.666h-118.655c-4.268 0-7.726-3.459-7.726-7.726s3.459-7.726 7.726-7.726h118.655c4.268 0 7.726 3.459 7.726 7.726s-3.459 7.726-7.726 7.726z" fill="#365e7d"/></g></g><g><g><path d="m193.449 183.23h-25.939c-4.268 0-7.726-3.459-7.726-7.726 0-4.268 3.459-7.726 7.726-7.726h25.939c4.268 0 7.726 3.459 7.726 7.726.001 4.268-3.458 7.726-7.726 7.726z" fill="#365e7d"/></g><g><path d="m344.49 183.23h-118.655c-4.268 0-7.726-3.459-7.726-7.726 0-4.268 3.459-7.726 7.726-7.726h118.655c4.268 0 7.726 3.459 7.726 7.726 0 4.268-3.459 7.726-7.726 7.726z" fill="#365e7d"/></g></g><g><g><path d="m193.449 217.795h-25.939c-4.268 0-7.726-3.459-7.726-7.726s3.459-7.726 7.726-7.726h25.939c4.268 0 7.726 3.459 7.726 7.726s-3.458 7.726-7.726 7.726z" fill="#365e7d"/></g><g><path d="m344.49 217.795h-118.655c-4.268 0-7.726-3.459-7.726-7.726s3.459-7.726 7.726-7.726h118.655c4.268 0 7.726 3.459 7.726 7.726s-3.459 7.726-7.726 7.726z" fill="#365e7d"/></g></g></g><g><g><path d="m298.254 325.828c-6.745 0-10.967-.786-17.323-4.945-3.57-2.337-4.571-7.126-2.235-10.696 2.337-3.57 7.124-4.57 10.696-2.235 3.481 2.278 4.625 2.465 9.396 2.422 4.455-.029 6.229-3.524 6.575-5.585.443-2.633-.706-4.453-3.415-5.41-.904-.32-1.787-.624-2.642-.919-6.243-2.151-11.637-4.009-15.306-8.268-4.24-4.926-5.712-11.97-3.842-18.387 1.757-6.027 6.197-10.518 12.184-12.322 10.876-3.277 19.469-1.036 20.413-.769 4.107 1.158 6.496 5.427 5.337 9.534-1.151 4.081-5.372 6.469-9.458 5.358-.246-.059-5.391-1.27-11.835.672-.687.206-1.44.589-1.807 1.849-.39 1.341-.082 3.051.715 3.979.943 1.095 5.206 2.563 8.632 3.743.892.308 1.814.626 2.758.959 9.764 3.452 15.191 12.51 13.505 22.541-1.788 10.634-10.919 18.403-21.711 18.476-.214.002-.427.003-.637.003z" fill="#95d6a4"/></g><g><path d="m298.841 333.387c-4.268 0-7.726-3.459-7.726-7.726v-5.821c0-4.268 3.459-7.726 7.726-7.726 4.268 0 7.726 3.459 7.726 7.726v5.821c0 4.268-3.459 7.726-7.726 7.726z" fill="#95d6a4"/></g><g><path d="m298.841 272.216c-4.268 0-7.726-3.459-7.726-7.726v-5.367c0-4.268 3.459-7.726 7.726-7.726 4.268 0 7.726 3.459 7.726 7.726v5.367c0 4.268-3.459 7.726-7.726 7.726z" fill="#95d6a4"/></g></g></g></svg>