<svg id="Capa_1" enable-background="new 0 0 512 512" height="512" viewBox="0 0 512 512" width="512" xmlns="http://www.w3.org/2000/svg"><g><path d="m438.006 363.488h-422.185c-8.738 0-15.821-7.083-15.821-15.821v-271.936c0-8.738 7.083-15.821 15.821-15.821h422.185c8.738 0 15.821 7.083 15.821 15.821v271.936c0 8.738-7.084 15.821-15.821 15.821z" fill="#9dc6fb"/><path d="m438.006 59.91h-29.48c8.738 0 15.821 7.083 15.821 15.821v271.937c0 8.738-7.083 15.821-15.821 15.821h29.48c8.738 0 15.821-7.083 15.821-15.821v-271.937c0-8.738-7.084-15.821-15.821-15.821z" fill="#80b4fb"/><path d="m0 125.077h453.827v41.776h-453.827z" fill="#407093"/><path d="m424.346 125.077h29.48v41.776h-29.48z" fill="#365e7d"/><ellipse cx="110.366" cy="289.292" fill="#ecbe6b" rx="64.673" ry="30.978"/><path d="m110.366 258.314c-5.916 0-11.64.388-17.084 1.101 27.425 3.59 47.589 15.602 47.589 29.877s-20.164 26.287-47.589 29.877c5.444.713 11.168 1.101 17.084 1.101 35.718 0 64.673-13.869 64.673-30.978 0-17.108-28.955-30.978-64.673-30.978z" fill="#e7a561"/><g><path d="m360.277 231.369h-150.13c-4.268 0-7.726-3.459-7.726-7.726 0-4.268 3.459-7.726 7.726-7.726h150.13c4.268 0 7.726 3.459 7.726 7.726.001 4.268-3.458 7.726-7.726 7.726z" fill="#365e7d"/></g><g><path d="m360.277 277.572h-74.716c-4.268 0-7.726-3.459-7.726-7.726 0-4.268 3.459-7.726 7.726-7.726h74.716c4.268 0 7.726 3.459 7.726 7.726.001 4.267-3.458 7.726-7.726 7.726z" fill="#365e7d"/></g><circle cx="407.247" cy="347.337" fill="#95d6a4" r="104.753"/><path d="m407.247 242.583c-5.113 0-10.139.374-15.057 1.082 50.719 7.302 89.697 50.932 89.697 103.672s-38.978 96.37-89.697 103.672c4.918.708 9.943 1.082 15.057 1.082 57.853-.001 104.753-46.9 104.753-104.754s-46.9-104.754-104.753-104.754z" fill="#78c2a4"/><g><path d="m393.625 385.401c-.086 0-.171-.001-.257-.004-2.093-.069-4.066-.985-5.472-2.537l-35.496-39.211c-2.863-3.163-2.621-8.049.543-10.913 3.165-2.861 8.05-2.621 10.913.543l30.137 33.291 56.998-55.124c3.066-2.968 7.958-2.884 10.926.183 2.966 3.067 2.884 7.959-.183 10.926l-62.738 60.675c-1.442 1.394-3.37 2.171-5.371 2.171z" fill="#f9f6f9"/></g></g></svg>